<?xml version="1.0" encoding="UTF-8"?> <svg id="laminar_logo_full_slim_black" xmlns="http://www.w3.org/2000/svg" viewBox="0 0 3854.01 578.78"><g id="black"><path d="M0,0H25.16V578.78H0V0ZM50.33,0h25.16V578.78h-25.16V0Zm50.33,0h25.16V578.78h-25.16V0Zm50.33,0h25.16V452.96h201.32v25.16H176.15v25.16h201.32v25.16H176.15v25.16h201.32v25.16H150.99V0Z"/><path d="M439.33,578.78h-27.26L640.99,0h27.26l228.58,578.78h-26.91L654.63,33.9l-215.3,544.88ZM657.77,93.67l14.33,32.15-178.95,452.96h-26.91L657.77,93.67Zm27.96,66.41l13.28,34.6-151.34,384.11h-27.26l165.32-418.71Zm26.56,69.2l13.28,35.3-124.07,314.21h-26.91l137.71-349.51Zm-68.5,280.3l9.79-25.16h164.97l10.49,25.16h-185.24Zm19.57-50.33l9.79-25.16h125.47l10.83,25.16h-146.09Zm19.57-50.33l10.14-25.16h85.98l10.14,25.16h-106.25ZM722.08,0l228.93,578.78h-27.26L695.17,0h26.91Zm54.17,0l228.93,578.78h-26.91L749.34,0h26.91Zm283.1,578.78h-27.26L803.52,0h26.91l228.93,578.78Z"/><path d="M1357.13,427.8h-28.31L1128.56,47.88V578.78h-25.16V0h28.31l225.43,427.8Zm-203.41-296.38l25.16,47.88v399.49h-25.16V131.41Zm260.38,296.38h-28.66L1160.36,0h28.66l225.08,427.8Zm-210.05-200.62l25.16,47.53v304.07h-25.16V227.18ZM1670.99,47.88l-200.27,379.91h-28.66L1217.33,0h28.31l211.1,401.23L1667.5,0h28.66V578.78h-25.16V47.88Zm-416.61,275.06l25.16,47.53v208.31h-25.16v-255.84Zm168.46-22.02l-14.68-26.56L1553.56,0h28.66l-159.37,300.93Zm29.01,54.87l-14.33-26.21L1610.88,0h28.31l-187.34,355.8Zm68.15,11.88l25.16-47.53v258.63h-25.16v-211.1Zm50.33-96.46l25.16-47.53v355.1h-25.16V271.22Zm50.33-95.07l25.16-47.88v450.51h-25.16V176.15Z"/><path d="M1762.56,0h25.16V578.78h-25.16V0Zm50.33,0h25.16V578.78h-25.16V0Zm50.33,0h25.16V578.78h-25.16V0Zm50.33,0h25.16V578.78h-25.16V0Z"/><path d="M2030.28,40.89V578.78h-25.16V0h30.06l354.75,578.78h-29.01L2030.28,40.89Zm25.16,71.65l25.16,42.64v423.6h-25.16V112.54Zm8.74-112.54h29.36l355.8,578.78h-29.36L2064.18,0Zm41.59,196.07l25.16,42.29v340.42h-25.16V196.07ZM2123.6,0h29.71l355.45,578.78h-30.06L2123.6,0Zm32.5,278.56l25.16,41.59v258.63h-25.16V278.56ZM2182.67,0h29.36l329.93,537.89V0h25.16V578.78h-29.71L2182.67,0Zm233.47,300.23l-25.16-41.59V0h25.16V300.23Zm50.33,82.48l-25.16-42.29V0h25.16V382.71Zm50.33,83.53l-25.16-42.64V0h25.16V466.24Z"/><path d="M2639.82,578.78h-27.26L2841.49,0h27.26l228.58,578.78h-26.91L2855.12,33.9l-215.3,544.88Zm218.44-485.11l14.33,32.15-178.95,452.96h-26.91l191.53-485.11Zm27.96,66.41l13.28,34.6-151.34,384.11h-27.26l165.32-418.71Zm26.56,69.2l13.28,35.3-124.07,314.21h-26.91l137.71-349.51Zm-68.5,280.3l9.79-25.16h164.97l10.49,25.16h-185.24Zm19.57-50.33l9.79-25.16h125.47l10.83,25.16h-146.09Zm19.57-50.33l10.14-25.16h85.98l10.14,25.16h-106.25ZM2922.57,0l228.93,578.78h-27.26L2895.66,0h26.91Zm54.17,0l228.93,578.78h-26.91L2949.83,0h26.91Zm283.1,578.78h-27.26L3004.01,0h26.91l228.93,578.78Z"/><path d="M3494.02,391.45h151.69c32.61,0,62.91-8.04,90.87-24.12,27.96-16.08,50.33-38.5,67.11-67.28,16.78-28.77,25.16-60.52,25.16-95.24,0-31.46-8.33-60.99-24.99-88.6-16.67-27.61-39.09-49.68-67.28-66.23-28.2-16.54-58.49-24.81-90.87-24.81h-316.65V578.78h-25.16V0h341.82c36.58,0,70.95,9.38,103.1,28.14,32.15,18.76,57.72,43.93,76.72,75.49,18.98,31.58,28.48,65.3,28.48,101.18,0,41.48-8.91,77.94-26.74,109.4-17.82,31.46-42.01,56.04-72.52,73.75l65.01,190.83h-26.56l-62.21-178.95c-9.33,3.74-16.43,6.29-21.32,7.69l58.37,171.26h-26.56l-56.97-165.32c-2.1,.47-9.56,1.29-22.37,2.45l54.17,162.87h-26.56l-53.47-162.17h-22.72l51.03,162.17h-26.56l-51.38-162.17h-92.62v-25.16Zm0-50.33h151.69c36.35,0,67.56-12.76,93.67-38.27,26.09-25.51,39.14-58.19,39.14-98.04,0-34.25-13.35-64.36-40.02-90.35-26.68-25.97-57.61-38.97-92.79-38.97h-266.32v503.29h-25.16V50.33h291.49c27.72,0,53.76,7.11,78.11,21.32,24.35,14.22,43.74,33.27,58.19,57.14,14.44,23.89,21.67,49.23,21.67,76.02,0,45.91-15.55,84.3-46.66,115.16-31.11,30.88-68.22,46.31-111.32,46.31h-151.69v-25.16Zm0-50.33h151.69c23.07,0,42.57-7.45,58.54-22.37,15.96-14.91,23.94-36.11,23.94-63.61,0-20.27-8.39-38.5-25.16-54.7-16.78-16.19-35.89-24.29-57.32-24.29h-215.99v452.96h-25.16V100.66h241.16c28.42,0,53.47,10.55,75.14,31.63,21.67,21.09,32.5,45.26,32.5,72.52,0,33.55-10.49,60.46-31.46,80.74-20.97,20.27-46.38,30.41-76.19,30.41h-151.69v-25.16Zm-13.98,287.99h-25.16V150.99h190.83c15.61,0,29.06,5.31,40.37,15.9,11.29,10.61,16.95,23.24,16.95,37.92,0,40.54-19.11,60.81-57.32,60.81h-151.69v-25.16h151.69c10.02,0,17.88-2.62,23.59-7.86,5.7-5.24,8.56-14.5,8.56-27.79,0-8.15-3.09-14.96-9.26-20.45-6.18-5.47-13.81-8.21-22.89-8.21h-165.67v402.63Z"/></g></svg>