<?xml version="1.0" encoding="utf-8"?>
<!-- Generator: Adobe Illustrator 27.0.1, SVG Export Plug-In . SVG Version: 6.00 Build 0)  -->
<svg version="1.1" id="Layer_1" xmlns="http://www.w3.org/2000/svg" xmlns:xlink="http://www.w3.org/1999/xlink" x="0px" y="0px" viewBox="0 0 3854 578.8" enable-background="new 0 0 3854 578.8" xml:space="preserve">
  <g>
    <path fill="#FFFFFF" d="M0,0h25.2v578.8H0V0z M50.3,0h25.2v578.8H50.3V0z M100.7,0h25.2v578.8h-25.2V0z M151,0h25.2v453h201.3v25.2
		H176.2v25.2h201.3v25.2H176.2v25.2h201.3v25.2H151V0z" />
    <path fill="#FFFFFF" d="M439.3,578.8h-27.3L641,0h27.3l228.6,578.8h-26.9L654.6,33.9L439.3,578.8z M657.8,93.7l14.3,32.2
		l-178.9,453h-26.9L657.8,93.7z M685.7,160.1l13.3,34.6L547.7,578.8h-27.3L685.7,160.1z M712.3,229.3l13.3,35.3L601.5,578.8h-26.9
		L712.3,229.3z M643.8,509.6l9.8-25.2h165l10.5,25.2H643.8z M663.4,459.3l9.8-25.2h125.5l10.8,25.2H663.4z M682.9,408.9l10.1-25.2
		h86l10.1,25.2H682.9z M722.1,0L951,578.8h-27.3L695.2,0H722.1z M776.3,0l228.9,578.8h-26.9L749.3,0H776.3z M1059.4,578.8h-27.3
		L803.5,0h26.9L1059.4,578.8z" />
    <path fill="#FFFFFF" d="M1357.1,427.8h-28.3L1128.6,47.9v530.9h-25.2V0h28.3L1357.1,427.8z M1153.7,131.4l25.2,47.9v399.5h-25.2
		V131.4z M1414.1,427.8h-28.7L1160.4,0h28.7L1414.1,427.8z M1204,227.2l25.2,47.5v304.1H1204V227.2z M1671,47.9l-200.3,379.9h-28.7
		L1217.3,0h28.3l211.1,401.2L1667.5,0h28.7v578.8H1671V47.9z M1254.4,322.9l25.2,47.5v208.3h-25.2V322.9z M1422.8,300.9l-14.7-26.6
		L1553.6,0h28.7L1422.8,300.9z M1451.8,355.8l-14.3-26.2L1610.9,0h28.3L1451.8,355.8z M1520,367.7l25.2-47.5v258.6H1520V367.7z
		 M1570.3,271.2l25.2-47.5v355.1h-25.2V271.2z M1620.7,176.2l25.2-47.9v450.5h-25.2V176.2z" />
    <path fill="#FFFFFF" d="M1762.6,0h25.2v578.8h-25.2V0z M1812.9,0h25.2v578.8h-25.2V0z M1863.2,0h25.2v578.8h-25.2V0z M1913.5,0
		h25.2v578.8h-25.2V0z" />
    <path fill="#FFFFFF" d="M2030.3,40.9v537.9h-25.2V0h30.1l354.7,578.8h-29L2030.3,40.9z M2055.4,112.5l25.2,42.6v423.6h-25.2V112.5z
		 M2064.2,0h29.4l355.8,578.8H2420L2064.2,0z M2105.8,196.1l25.2,42.3v340.4h-25.2V196.1z M2123.6,0h29.7l355.4,578.8h-30.1
		L2123.6,0z M2156.1,278.6l25.2,41.6v258.6h-25.2V278.6z M2182.7,0h29.4L2542,537.9V0h25.2v578.8h-29.7L2182.7,0z M2416.1,300.2
		l-25.2-41.6V0h25.2V300.2z M2466.5,382.7l-25.2-42.3V0h25.2V382.7z M2516.8,466.2l-25.2-42.6V0h25.2V466.2z" />
    <path fill="#FFFFFF" d="M2639.8,578.8h-27.3L2841.5,0h27.3l228.6,578.8h-26.9L2855.1,33.9L2639.8,578.8z M2858.3,93.7l14.3,32.2
		l-178.9,453h-26.9L2858.3,93.7z M2886.2,160.1l13.3,34.6l-151.3,384.1h-27.3L2886.2,160.1z M2912.8,229.3l13.3,35.3L2802,578.8
		h-26.9L2912.8,229.3z M2844.3,509.6l9.8-25.2h165l10.5,25.2H2844.3z M2863.9,459.3l9.8-25.2h125.5l10.8,25.2H2863.9z M2883.4,408.9
		l10.1-25.2h86l10.1,25.2H2883.4z M2922.6,0l228.9,578.8h-27.3L2895.7,0H2922.6z M2976.7,0l228.9,578.8h-26.9L2949.8,0H2976.7z
		 M3259.8,578.8h-27.3L3004,0h26.9L3259.8,578.8z" />
    <path fill="#FFFFFF" d="M3494,391.4h151.7c32.6,0,62.9-8,90.9-24.1s50.3-38.5,67.1-67.3c16.8-28.8,25.2-60.5,25.2-95.2
		c0-31.5-8.3-61-25-88.6c-16.7-27.6-39.1-49.7-67.3-66.2c-28.2-16.5-58.5-24.8-90.9-24.8H3329v553.6h-25.2V0h341.8
		c36.6,0,70.9,9.4,103.1,28.1c32.2,18.8,57.7,43.9,76.7,75.5c19,31.6,28.5,65.3,28.5,101.2c0,41.5-8.9,77.9-26.7,109.4
		c-17.8,31.5-42,56-72.5,73.7l65,190.8h-26.6L3731,399.8c-9.3,3.7-16.4,6.3-21.3,7.7l58.4,171.3h-26.6l-57-165.3
		c-2.1,0.5-9.6,1.3-22.4,2.4l54.2,162.9h-26.6l-53.5-162.2h-22.7l51,162.2H3638l-51.4-162.2H3494V391.4z M3494,341.1h151.7
		c36.3,0,67.6-12.8,93.7-38.3c26.1-25.5,39.1-58.2,39.1-98c0-34.3-13.3-64.4-40-90.3c-26.7-26-57.6-39-92.8-39h-266.3v503.3h-25.2
		V50.3h291.5c27.7,0,53.8,7.1,78.1,21.3c24.3,14.2,43.7,33.3,58.2,57.1c14.4,23.9,21.7,49.2,21.7,76c0,45.9-15.6,84.3-46.7,115.2
		c-31.1,30.9-68.2,46.3-111.3,46.3H3494V341.1z M3494,290.8h151.7c23.1,0,42.6-7.4,58.5-22.4c16-14.9,23.9-36.1,23.9-63.6
		c0-20.3-8.4-38.5-25.2-54.7c-16.8-16.2-35.9-24.3-57.3-24.3h-216v453h-25.2V100.7h241.2c28.4,0,53.5,10.6,75.1,31.6
		c21.7,21.1,32.5,45.3,32.5,72.5c0,33.6-10.5,60.5-31.5,80.7c-21,20.3-46.4,30.4-76.2,30.4H3494V290.8z M3480,578.8h-25.2V151h190.8
		c15.6,0,29.1,5.3,40.4,15.9c11.3,10.6,17,23.2,17,37.9c0,40.5-19.1,60.8-57.3,60.8H3494v-25.2h151.7c10,0,17.9-2.6,23.6-7.9
		c5.7-5.2,8.6-14.5,8.6-27.8c0-8.1-3.1-15-9.3-20.4c-6.2-5.5-13.8-8.2-22.9-8.2H3480V578.8z" />
  </g>
  <g></g>
  <g></g>
  <g></g>
  <g></g>
  <g></g>
  <g></g>
</svg>